<svg xmlns="http://www.w3.org/2000/svg" viewBox="100 50 200 200" width="206" height="200" class="illustration styles_illustrationTablet__1DWOa"><g id="_248_checklist_outline" data-name="#248_checklist_outline"><rect x="131.49" y="75.94" width="137.03" height="166.68" rx="6.47" fill="#f6f5fe"></rect><path d="M262,243.62H138a7.48,7.48,0,0,1-7.47-7.47V82.41A7.48,7.48,0,0,1,138,74.94H262a7.48,7.48,0,0,1,7.47,7.47V236.15A7.48,7.48,0,0,1,262,243.62ZM138,76.94a5.47,5.47,0,0,0-5.47,5.47V236.15a5.47,5.47,0,0,0,5.47,5.47H262a5.47,5.47,0,0,0,5.47-5.47V82.41A5.47,5.47,0,0,0,262,76.94Z" fill="#093f68"></path><rect x="143.12" y="84.32" width="113.75" height="147.91" fill="#fff"></rect><path d="M256.88,233.24H143.12a1,1,0,0,1-1-1V84.32a1,1,0,0,1,1-1H256.88a1,1,0,0,1,1,1V232.24A1,1,0,0,1,256.88,233.24Zm-112.76-2H255.88V85.32H144.12Z" fill="#093f68"></path><path d="M177.47,133.37h-18a1,1,0,0,1-1-1V116.6a1,1,0,0,1,1-1h18a1,1,0,0,1,1,1v15.77A1,1,0,0,1,177.47,133.37Zm-17-2h16V117.6h-16Z" fill="#dfeaef"></path><rect x="204.5" y="121.49" width="36.04" height="6.38" rx="3.19" fill="#dfeaef"></rect><path d="M177.47,173.54h-18a1,1,0,0,1-1-1V156.77a1,1,0,0,1,1-1h18a1,1,0,0,1,1,1v15.77A1,1,0,0,1,177.47,173.54Zm-17-2h16V157.77h-16Z" fill="#dfeaef"></path><rect x="204.5" y="161.65" width="36.04" height="6.38" rx="3.19" fill="#dfeaef"></rect><path d="M177.47,213.71h-18a1,1,0,0,1-1-1V196.94a1,1,0,0,1,1-1h18a1,1,0,0,1,1,1v15.77A1,1,0,0,1,177.47,213.71Zm-17-2h16V197.94h-16Z" fill="#dfeaef"></path><rect x="204.5" y="201.82" width="36.04" height="6.38" rx="3.19" fill="#dfeaef"></rect><polygon points="156.19 159.31 170.47 173.43 191.96 152.96 186.78 147.78 170.47 163.31 161.37 154.37 156.19 159.31" fill="#ffbc0e"></polygon><path d="M170.47,174.43a1,1,0,0,1-.7-.29L155.48,160a1,1,0,0,1-.29-.72,1,1,0,0,1,.31-.71l5.18-4.94a1,1,0,0,1,1.39,0l8.41,8.26,15.61-14.86a1,1,0,0,1,1.4,0l5.17,5.17a1,1,0,0,1,.3.72,1,1,0,0,1-.31.71l-21.49,20.47A1,1,0,0,1,170.47,174.43Zm-12.85-15.11L170.48,172l20.05-19.1-3.77-3.76L171.16,164a1,1,0,0,1-1.39,0l-8.41-8.27Z" fill="#093f68"></path><polygon points="156.19 118.98 170.47 133.1 191.96 112.63 186.78 107.45 170.47 122.98 161.37 114.04 156.19 118.98" fill="#ffbc0e"></polygon><path d="M170.47,134.1a1,1,0,0,1-.7-.29l-14.29-14.12a1,1,0,0,1-.29-.72,1,1,0,0,1,.31-.72l5.18-4.93a1,1,0,0,1,1.39,0l8.41,8.26,15.61-14.86a1,1,0,0,1,1.4,0l5.17,5.17a1,1,0,0,1,.3.72,1,1,0,0,1-.31.71l-21.49,20.47A1,1,0,0,1,170.47,134.1ZM157.62,119l12.86,12.72,20.05-19.1-3.77-3.76-15.6,14.86a1,1,0,0,1-1.39,0l-8.41-8.27Z" fill="#093f68"></path><path d="M231.59,179.23a215.61,215.61,0,0,1-27.23,18,113,113,0,0,1-20.08,8.93l-1.45-1.9a112.94,112.94,0,0,1,13.81-17.08,213.54,213.54,0,0,1,24.45-21.65C235.16,154.75,256,138,268,129.32a4.22,4.22,0,0,1,5.82.84l5.57,7.26a4.22,4.22,0,0,1-.69,5.84C267.22,152.6,245.66,168.43,231.59,179.23Z" fill="#ffbc0e"></path><path d="M184.28,207.19a1,1,0,0,1-.79-.39L182,204.9a1,1,0,0,1-.05-1.14,113.54,113.54,0,0,1,13.94-17.25,217.57,217.57,0,0,1,24.56-21.75c5.05-3.88,10.89-8.45,17.06-13.29,10.91-8.54,22.18-17.38,29.88-23a5.19,5.19,0,0,1,7.2,1l5.58,7.26a5.19,5.19,0,0,1-.86,7.22c-7.39,6-18.86,14.64-29.95,23-6.25,4.7-12.16,9.15-17.19,13h0a218.23,218.23,0,0,1-27.36,18.12,114.31,114.31,0,0,1-20.26,9A1,1,0,0,1,184.28,207.19Zm-.23-2.95.6.78a115.63,115.63,0,0,0,19.23-8.64A215.81,215.81,0,0,0,231,178.44h0c5-3.88,11-8.32,17.21-13,11.07-8.33,22.53-16.94,29.89-22.93a3.2,3.2,0,0,0,.53-4.45L273,130.77a3.2,3.2,0,0,0-4.44-.64c-7.67,5.56-18.93,14.38-29.82,22.92-6.19,4.84-12,9.41-17.08,13.3a214.43,214.43,0,0,0-24.34,21.55A115.34,115.34,0,0,0,184.05,204.24Z" fill="#093f68"></path><path d="M268,129.32s-4.47-2.75-9.28-1.13-34.1,26.18-34.1,26.18,3.44,2,6.29.2,1.87-4.14,1.87-4.14,20.15-15.86,22.38-16.67,4.4,1.89,4.4,1.89Z" fill="#093f68"></path><path d="M228.22,156.31a9,9,0,0,1-4.09-1.07,1,1,0,0,1-.5-.78,1,1,0,0,1,.35-.85c3-2.53,29.57-24.73,34.43-26.37,5.19-1.74,9.92,1.11,10.12,1.23a1,1,0,0,1,.08,1.65l-8.44,6.33a1,1,0,0,1-1.38-.17s-1.77-2.12-3.28-1.58-13.82,10-21.6,16.13a4.63,4.63,0,0,1-2.47,4.59A6,6,0,0,1,228.22,156.31Zm-1.66-2.25a4.81,4.81,0,0,0,3.83-.34c2-1.23,1.53-2.77,1.47-2.94a1,1,0,0,1,.32-1.13c3.38-2.67,20.38-16,22.65-16.83,2-.74,3.9.6,4.85,1.5l6.4-4.81a10.5,10.5,0,0,0-7-.37C255.43,130.36,235.47,146.62,226.56,154.06Z" fill="#093f68"></path><path d="M204.36,197.26a113,113,0,0,1-20.08,8.93l-1.45-1.9a112.94,112.94,0,0,1,13.81-17.08Z" fill="#fff"></path><path d="M184.28,207.19a1,1,0,0,1-.79-.39L182,204.9a1,1,0,0,1-.05-1.14,113.54,113.54,0,0,1,13.94-17.25,1,1,0,0,1,.77-.3,1,1,0,0,1,.74.39l7.72,10.05a1,1,0,0,1,.19.82,1,1,0,0,1-.5.67,114.31,114.31,0,0,1-20.26,9A1,1,0,0,1,184.28,207.19Zm-.23-2.95.6.78a113.69,113.69,0,0,0,18.2-8.08l-6.29-8.2A114,114,0,0,0,184.05,204.24Z" fill="#093f68"></path><path d="M180.84,204.37h1.88a0,0,0,0,1,0,0V208a.79.79,0,0,1-.79.79h-.29a.79.79,0,0,1-.79-.79v-3.68A0,0,0,0,1,180.84,204.37Z" transform="translate(234.95 -63.4) rotate(52.48)" fill="#093f68"></path><path d="M180.73,209.39h-.24a1.85,1.85,0,0,1-1.19-.69l-.17-.23a1.76,1.76,0,0,1-.36-1.33,1.81,1.81,0,0,1,.69-1.19l2.91-2.24a1,1,0,0,1,1.41.19l1.14,1.49a1,1,0,0,1-.18,1.4L181.82,209A1.82,1.82,0,0,1,180.73,209.39Zm.16-1.92Z" fill="#093f68"></path><path d="M235.1,67.59H212.67a12.25,12.25,0,0,0-24.49,0H164.9a3,3,0,0,0-3,3V87.49A10.14,10.14,0,0,0,172,97.62h56a10.14,10.14,0,0,0,10.13-10.13V70.6A3,3,0,0,0,235.1,67.59Zm-34.67-4.9a4.94,4.94,0,0,1,4.94,4.9v0a4.95,4.95,0,0,1-9.89,0v0A4.94,4.94,0,0,1,200.43,62.69Z" fill="#f6f5fe"></path><path d="M228,98.62H172A11.14,11.14,0,0,1,160.9,87.49V70.6a4,4,0,0,1,4-4h22.31a13.25,13.25,0,0,1,26.41,0h21.47a4,4,0,0,1,4,4V87.49A11.15,11.15,0,0,1,228,98.62Zm-63.07-30a2,2,0,0,0-2,2V87.49A9.14,9.14,0,0,0,172,96.62H228a9.15,9.15,0,0,0,9.14-9.13V70.6a2,2,0,0,0-2-2H212.67a1,1,0,0,1-1-1,11.25,11.25,0,0,0-22.5,0,1,1,0,0,1-1,1Zm35.52,5a5.94,5.94,0,1,1,6-6A5.94,5.94,0,0,1,200.42,73.57Zm0-9.88a3.94,3.94,0,1,0,4,3.94A3.94,3.94,0,0,0,200.42,63.69Z" fill="#093f68"></path></g></svg>
